<svg id="Layer_1" data-name="Layer 1" xmlns="http://www.w3.org/2000/svg" viewBox="0 0 708.66 708.66"><defs><style>.cls-1,.cls-3{fill:#fff;}.cls-2{fill:#48a9ca;}.cls-3{stroke:#48a9ca;stroke-linecap:round;stroke-miterlimit:10;stroke-width:28.12px;}</style></defs><title>pakketiconen</title><rect class="cls-1" x="78.3" y="94.97" width="368.24" height="486.75"/><path class="cls-2" d="M432.49,109V567.66H92.36V109H432.49M460.6,80.91H64.25V595.78H460.6V80.91Z"/><rect class="cls-1" x="260.99" y="398.27" width="369.37" height="215.43"/><path class="cls-2" d="M616.3,412.33V599.64H275.05V412.33H616.3m28.12-28.12H246.93V627.75H644.42V384.21Z"/><polygon class="cls-1" points="438.91 518.3 268.29 424.65 275.05 398.27 616.3 398.27 623.06 424.65 452.44 518.3 438.91 518.3"/><path class="cls-2" d="M616.3,412.33h0m0,0L445.67,506,275.05,412.33H616.3m0-28.12H275.05L261.52,437l170.63,93.66H459.2L629.83,437,616.3,384.23v0Zm0,56.23Z"/><rect class="cls-1" x="349.38" y="176.77" width="268.09" height="164"/><path class="cls-2" d="M603.41,190.83V326.72h-240V190.83h240m28.12-28.12H335.32V354.83H631.53V162.71Z"/><line class="cls-3" x1="519.34" y1="233.08" x2="567.94" y2="233.08"/><line class="cls-3" x1="475.79" y1="273.9" x2="567.94" y2="273.9"/><line class="cls-3" x1="137.99" y1="180.28" x2="293.74" y2="180.28"/><line class="cls-3" x1="137.99" y1="239.28" x2="236.98" y2="239.28"/><line class="cls-3" x1="137.99" y1="289.38" x2="293.74" y2="289.38"/><line class="cls-3" x1="137.99" y1="339.47" x2="293.74" y2="339.47"/><line class="cls-3" x1="137.99" y1="390.33" x2="210.84" y2="390.33"/><line class="cls-3" x1="137.99" y1="441.19" x2="210.84" y2="441.19"/><line class="cls-3" x1="137.99" y1="492.05" x2="210.84" y2="492.05"/></svg>