<svg id="Layer_1" data-name="Layer 1" xmlns="http://www.w3.org/2000/svg" viewBox="0 0 708.66 708.66"><defs><style>.cls-1{fill:#fff;}.cls-2{fill:#48a9ca;}</style></defs><title>pakketiconen</title><circle class="cls-1" cx="240.41" cy="359.43" r="207.85"/><path class="cls-2" d="M240.41,165.63c107,0,193.8,86.77,193.8,193.8s-86.77,193.79-193.8,193.79S46.62,466.46,46.62,359.43s86.76-193.8,193.79-193.8m0-28.11A221.34,221.34,0,1,0,326.8,155a220.5,220.5,0,0,0-86.39-17.45Z"/><polygon class="cls-1" points="331.53 613.49 234.54 445.5 331.53 277.51 525.5 277.51 622.5 445.5 525.5 613.49 331.53 613.49"/><path class="cls-2" d="M517.39,291.57,606.26,445.5,517.39,599.43H339.64L250.77,445.5l88.87-153.93H517.39m16.23-28.12H323.41l-8.12,14.06L226.42,431.44,218.3,445.5l8.12,14.06,88.87,153.93,8.12,14.06H533.62l8.12-14.06,88.87-153.93,8.12-14.06-8.12-14.06L541.74,277.51l-8.12-14.06Z"/><path class="cls-1" d="M381.12,408.76a16.73,16.73,0,0,1-13.18-6.51,16.54,16.54,0,0,1-2.86-14.41l22.35-83.39L597.81,94.07l7.26,1.33a90.57,90.57,0,0,1,72.8,72.81l1.33,7.25L468.82,385.84l-83.39,22.35a16.57,16.57,0,0,1-4.31.57Z"/><path class="cls-2" d="M602.54,109.23A76.5,76.5,0,0,1,664,170.74l-202.5,202.5h0l-79.75,21.37a2.63,2.63,0,0,1-.67.09,2.57,2.57,0,0,1-2.46-3.22L400,311.73l202.51-202.5m-9.46-30.31L582.65,89.35l-202.5,202.5-5.33,5.33-1.95,7.27L351.5,384.21a30.49,30.49,0,0,0,5.29,26.6,30.64,30.64,0,0,0,32.28,11l79.75-21.37,7.27-1.95,5.33-5.33,202.51-202.5,10.42-10.43-2.65-14.51a104.63,104.63,0,0,0-84.11-84.11l-14.51-2.65Z"/></svg>