<svg id="Layer_1" data-name="Layer 1" xmlns="http://www.w3.org/2000/svg" viewBox="0 0 708.66 708.66"><defs><style>.cls-1{fill:#fff;}.cls-2{fill:#48a9ca;}</style></defs><title>website_icoon</title><rect class="cls-1" x="33.52" y="93.14" width="641.62" height="401.79"/><path class="cls-2" d="M659.26,109v370H49.4V109H659.26M691,77.26H17.64V510.81H691V77.26Z"/><rect class="cls-1" x="173.71" y="168.73" width="361.24" height="57.03"/><path class="cls-2" d="M519.07,184.61v25.27H189.59V184.61H519.07M537,152.85H171.71a13.87,13.87,0,0,0-13.88,13.88v61a13.88,13.88,0,0,0,13.88,13.88H537a13.88,13.88,0,0,0,13.88-13.88v-61A13.87,13.87,0,0,0,537,152.85Z"/><rect class="cls-1" x="173.71" y="280.5" width="105.62" height="138.85"/><path class="cls-2" d="M263.45,296.38V403.47H189.59V296.38h73.86m17.87-31.76H171.71a13.87,13.87,0,0,0-13.88,13.88V421.35a13.88,13.88,0,0,0,13.88,13.88H281.32a13.89,13.89,0,0,0,13.89-13.88V278.5a13.88,13.88,0,0,0-13.89-13.88Z"/><rect class="cls-1" x="336.71" y="280.5" width="198.24" height="138.85" rx="2.08"/><path class="cls-2" d="M519.07,296.38V403.47H352.59V296.38H519.07m13.8-31.76H338.79a18,18,0,0,0-18,18V417.27a18,18,0,0,0,18,18H532.87a18,18,0,0,0,18-18V282.58a18,18,0,0,0-18-18Z"/><polygon class="cls-1" points="249.72 617.52 294.39 553.91 273.73 495.22 434.99 495.22 414.33 553.91 459 617.52 249.72 617.52"/><path class="cls-2" d="M412.56,511.1q-7.95,22.62-15.92,45.24l31.8,45.3H280.28l31.8-45.3q-8-22.62-15.92-45.24h116.4m44.85-31.76H251.31l14.89,42.3,8,22.63,2.53,7.2-6.51,9.27-15.9,22.65-35.11,50H489.55l-35.12-50-15.9-22.65L432,551.47l2.54-7.2,8-22.63,14.89-42.3Zm-44.85,63.52h0Z"/></svg>